<?xml version="1.0" encoding="utf-8"?>
<svg version="1.1" x="0px" y="0px" viewBox="0 0 100 100" xmlns="http://www.w3.org/2000/svg">
  <g transform="matrix(1.160714, 0, 0, 1.115126, -16.703653, -1067.770996)">
    <path d="M 50 959.362 C 34.548 959.362 22 971.91 22 987.362 C 22 992.933 23.638 998.124 26.438 1002.487 L 41.813 1026.456 C 40.231 1026.892 38.773 1027.438 37.5 1028.112 C 34.238 1029.839 32 1032.366 32 1035.362 C 32 1038.358 34.238 1040.885 37.5 1042.612 C 40.762 1044.339 45.163 1045.362 50 1045.362 C 54.837 1045.362 59.238 1044.339 62.5 1042.612 C 65.762 1040.885 68 1038.358 68 1035.362 C 68 1032.366 65.762 1029.839 62.5 1028.112 C 61.23 1027.44 59.763 1026.893 58.188 1026.456 L 73.563 1002.487 C 76.362 998.125 78 992.933 78 987.362 C 78 971.91 65.452 959.362 50 959.362 Z M 50 961.362 C 64.371 961.362 76 972.991 76 987.362 C 76 992.54 74.476 997.34 71.875 1001.393 L 50 1035.487 L 28.125 1001.393 C 25.524 997.339 24 992.54 24 987.362 C 24 972.991 35.629 961.362 50 961.362 Z M 50 976.362 C 43.937 976.362 39 981.299 39 987.362 C 39 993.425 43.937 998.362 50 998.362 C 56.063 998.362 61 993.425 61 987.362 C 61 981.299 56.063 976.362 50 976.362 Z M 50 978.362 C 54.982 978.362 59 982.38 59 987.362 C 59 992.345 54.982 996.362 50 996.362 C 45.018 996.362 41 992.345 41 987.362 C 41 982.38 45.018 978.362 50 978.362 Z M 42.969 1028.237 L 49.156 1037.893 C 49.549 1038.511 50.451 1038.511 50.844 1037.893 L 57.031 1028.237 C 58.732 1028.665 60.278 1029.213 61.563 1029.893 C 64.453 1031.424 66 1033.387 66 1035.362 C 66 1037.337 64.453 1039.301 61.563 1040.831 C 58.672 1042.361 54.551 1043.362 50 1043.362 C 45.449 1043.362 41.328 1042.361 38.438 1040.831 C 35.547 1039.301 34 1037.337 34 1035.362 C 34 1033.387 35.547 1031.424 38.438 1029.893 C 39.723 1029.213 41.266 1028.665 42.969 1028.237 Z"/>
  </g>
</svg>