<?xml version="1.0" encoding="utf-8"?>
<svg width="76" height="90" viewBox="0 0 59.51144790649414 66.81298065185547" version="1.1" xmlns="http://www.w3.org/2000/svg">
  <title>Untitled (Canvas)</title>
  <desc>Created using Figma</desc>
  <g id="Canvas" transform="matrix(0.698234, 0, 0, 0.681298, 173.876373, 151.248093)">
    <rect x="-246" y="-222" width="76" height="90" style="fill: rgba(229, 229, 229, 0);"/>
    <g id="report">
      <g id="Group">
        <g id="Vector">
          <path id="" d="M 2.66 5.321L 28.348 5.321C 28.309 5.02 28.256 4.722 28.256 4.41L 28.256 -2.68555e-06L 2.66 -2.68555e-06C 1.189 -2.68555e-06 6.10352e-07 1.189 6.10352e-07 2.66C 6.10352e-07 4.133 1.189 5.321 2.66 5.321Z" transform="matrix(1, 0, 0, 1, -234.26499938964844, -160.00900268554688)" style="fill: rgb(254, 253, 253);"/>
        </g>
        <g id="Vector">
          <path id="" d="M 9.15527e-08 8.117L 9.15527e-08 28.762L 11.887 28.762L 11.887 3.05176e-07C 8.375 0.774 5.439 5.147 0.328999 7.958C 0.213999 8.022 0.112 8.059 9.15527e-08 8.117Z" transform="matrix(1, 0, 0, 1, -199.77099609375, -199.32000732421875)" style="fill: rgb(254, 253, 253);"/>
        </g>
        <g id="Vector">
          <path id="" d="M 1.25122e-06 -7.62939e-08L 1.25122e-06 28.486L 11.888 28.486L 11.888 8.648C 8.667 7.946 6.555 3.76 0.826001 0.417999C 0.557001 0.261999 0.280001 0.123 1.25122e-06 -7.62939e-08Z" transform="matrix(1, 0, 0, 1, -215.78700256347656, -199.0449981689453)" style="fill: rgb(254, 253, 253);"/>
        </g>
        <g id="Vector">
          <path id="" d="M -4.57764e-08 29.232L 11.888 29.232L 11.888 -3.66211e-07C 7.674 0.108 3.137 2.385 -4.57764e-08 4.331L -4.57764e-08 29.232Z" transform="matrix(1, 0, 0, 1, -231.802001953125, -199.79100036621094)" style="fill: rgb(254, 253, 253);"/>
        </g>
        <g id="Vector">
          <path id="" d="M 2.961 9.88C 4.591 9.88 5.918 8.553 5.918 6.922C 5.918 6.802 5.897 6.687 5.882 6.57L 13.099 4.062C 13.538 5.147 14.599 5.916 15.839 5.916C 17.022 5.916 18.037 5.213 18.51 4.207L 28.528 10.074C 28.455 10.333 28.401 10.601 28.401 10.885C 28.401 12.515 29.726 13.841 31.358 13.841C 32.819 13.841 34.028 12.774 34.266 11.379L 45.464 4.871C 46.008 5.505 46.805 5.916 47.702 5.916C 49.335 5.916 50.662 4.589 50.662 2.958C 50.662 1.326 49.335 1.52588e-07 47.702 1.52588e-07C 46.071 1.52588e-07 44.744 1.326 44.744 2.958C 44.744 3.105 44.767 3.247 44.787 3.389L 34.031 9.639C 33.56 8.63 32.543 7.925 31.357 7.925C 30.595 7.925 29.908 8.222 29.384 8.695L 18.744 2.465C 18.507 1.069 17.298 0.000999603 15.837 0.000999603C 14.397 0.000999603 13.197 1.035 12.936 2.4L 5.247 5.071C 4.704 4.402 3.886 3.965 2.959 3.965C 1.326 3.965 -1.98364e-07 5.291 -1.98364e-07 6.922C -1.98364e-07 8.553 1.328 9.88 2.961 9.88ZM 47.704 1.624C 48.442 1.624 49.04 2.223 49.04 2.959C 49.04 3.695 48.442 4.293 47.704 4.293C 46.97 4.293 46.371 3.695 46.371 2.959C 46.371 2.223 46.969 1.624 47.704 1.624ZM 31.359 9.55C 32.095 9.55 32.694 10.148 32.694 10.886C 32.694 11.62 32.095 12.219 31.359 12.219C 30.622 12.219 30.025 11.62 30.025 10.886C 30.025 10.147 30.621 9.55 31.359 9.55ZM 15.839 1.624C 16.575 1.624 17.172 2.223 17.172 2.959C 17.172 3.695 16.574 4.293 15.839 4.293C 15.102 4.293 14.504 3.695 14.504 2.959C 14.504 2.223 15.102 1.624 15.839 1.624ZM 2.961 5.588C 3.697 5.588 4.294 6.186 4.294 6.922C 4.294 7.658 3.696 8.257 2.961 8.257C 2.224 8.257 1.625 7.658 1.625 6.922C 1.625 6.186 2.224 5.588 2.961 5.588Z" transform="matrix(1, 0, 0, 1, -234.26699829101562, -207.03500366210938)" style="fill: rgb(254, 253, 253);"/>
        </g>
        <g id="Vector">
          <path id="" d="M 69.167 0L 5.321 0C 2.385 0 -3.05176e-08 2.382 -3.05176e-08 5.321L -3.05176e-08 84.68C -3.05176e-08 87.619 2.385 90 5.321 90L 53.206 90L 74.486 68.717L 74.486 5.321C 74.486 2.382 72.109 0 69.167 0ZM 53.206 82.477L 53.206 68.717L 66.964 68.717L 53.206 82.477ZM 69.167 63.397L 53.206 63.397C 50.265 63.397 47.887 65.781 47.887 68.716L 47.887 84.68L 5.321 84.68L 5.321 5.321L 69.167 5.321L 69.167 63.397L 69.167 63.397Z" transform="matrix(1, 0, 0, 1, -245.2429962158203, -222)" style="fill: rgb(254, 253, 253);"/>
        </g>
        <g id="Vector">
          <path id="" d="M 2.66 5.32L 28.348 5.32C 28.309 5.017 28.256 4.72 28.256 4.408L 28.256 2.2583e-06L 2.66 2.2583e-06C 1.189 2.2583e-06 6.10352e-07 1.188 6.10352e-07 2.658C 6.10352e-07 4.133 1.189 5.32 2.66 5.32Z" transform="matrix(1, 0, 0, 1, -234.26499938964844, -150.26800537109375)" style="fill: rgb(254, 253, 253);"/>
        </g>
      </g>
    </g>
  </g>
  <defs>
    <path id="path0_fill" d="M 2.66 5.321L 28.348 5.321C 28.309 5.02 28.256 4.722 28.256 4.41L 28.256 -2.68555e-06L 2.66 -2.68555e-06C 1.189 -2.68555e-06 6.10352e-07 1.189 6.10352e-07 2.66C 6.10352e-07 4.133 1.189 5.321 2.66 5.321Z"/>
    <path id="path1_fill" d="M 9.15527e-08 8.117L 9.15527e-08 28.762L 11.887 28.762L 11.887 3.05176e-07C 8.375 0.774 5.439 5.147 0.328999 7.958C 0.213999 8.022 0.112 8.059 9.15527e-08 8.117Z"/>
    <path id="path2_fill" d="M 1.25122e-06 -7.62939e-08L 1.25122e-06 28.486L 11.888 28.486L 11.888 8.648C 8.667 7.946 6.555 3.76 0.826001 0.417999C 0.557001 0.261999 0.280001 0.123 1.25122e-06 -7.62939e-08Z"/>
    <path id="path3_fill" d="M -4.57764e-08 29.232L 11.888 29.232L 11.888 -3.66211e-07C 7.674 0.108 3.137 2.385 -4.57764e-08 4.331L -4.57764e-08 29.232Z"/>
    <path id="path4_fill" d="M 2.961 9.88C 4.591 9.88 5.918 8.553 5.918 6.922C 5.918 6.802 5.897 6.687 5.882 6.57L 13.099 4.062C 13.538 5.147 14.599 5.916 15.839 5.916C 17.022 5.916 18.037 5.213 18.51 4.207L 28.528 10.074C 28.455 10.333 28.401 10.601 28.401 10.885C 28.401 12.515 29.726 13.841 31.358 13.841C 32.819 13.841 34.028 12.774 34.266 11.379L 45.464 4.871C 46.008 5.505 46.805 5.916 47.702 5.916C 49.335 5.916 50.662 4.589 50.662 2.958C 50.662 1.326 49.335 1.52588e-07 47.702 1.52588e-07C 46.071 1.52588e-07 44.744 1.326 44.744 2.958C 44.744 3.105 44.767 3.247 44.787 3.389L 34.031 9.639C 33.56 8.63 32.543 7.925 31.357 7.925C 30.595 7.925 29.908 8.222 29.384 8.695L 18.744 2.465C 18.507 1.069 17.298 0.000999603 15.837 0.000999603C 14.397 0.000999603 13.197 1.035 12.936 2.4L 5.247 5.071C 4.704 4.402 3.886 3.965 2.959 3.965C 1.326 3.965 -1.98364e-07 5.291 -1.98364e-07 6.922C -1.98364e-07 8.553 1.328 9.88 2.961 9.88ZM 47.704 1.624C 48.442 1.624 49.04 2.223 49.04 2.959C 49.04 3.695 48.442 4.293 47.704 4.293C 46.97 4.293 46.371 3.695 46.371 2.959C 46.371 2.223 46.969 1.624 47.704 1.624ZM 31.359 9.55C 32.095 9.55 32.694 10.148 32.694 10.886C 32.694 11.62 32.095 12.219 31.359 12.219C 30.622 12.219 30.025 11.62 30.025 10.886C 30.025 10.147 30.621 9.55 31.359 9.55ZM 15.839 1.624C 16.575 1.624 17.172 2.223 17.172 2.959C 17.172 3.695 16.574 4.293 15.839 4.293C 15.102 4.293 14.504 3.695 14.504 2.959C 14.504 2.223 15.102 1.624 15.839 1.624ZM 2.961 5.588C 3.697 5.588 4.294 6.186 4.294 6.922C 4.294 7.658 3.696 8.257 2.961 8.257C 2.224 8.257 1.625 7.658 1.625 6.922C 1.625 6.186 2.224 5.588 2.961 5.588Z"/>
    <path id="path5_fill" d="M 69.167 0L 5.321 0C 2.385 0 -3.05176e-08 2.382 -3.05176e-08 5.321L -3.05176e-08 84.68C -3.05176e-08 87.619 2.385 90 5.321 90L 53.206 90L 74.486 68.717L 74.486 5.321C 74.486 2.382 72.109 0 69.167 0ZM 53.206 82.477L 53.206 68.717L 66.964 68.717L 53.206 82.477ZM 69.167 63.397L 53.206 63.397C 50.265 63.397 47.887 65.781 47.887 68.716L 47.887 84.68L 5.321 84.68L 5.321 5.321L 69.167 5.321L 69.167 63.397L 69.167 63.397Z"/>
    <path id="path6_fill" d="M 2.66 5.32L 28.348 5.32C 28.309 5.017 28.256 4.72 28.256 4.408L 28.256 2.2583e-06L 2.66 2.2583e-06C 1.189 2.2583e-06 6.10352e-07 1.188 6.10352e-07 2.658C 6.10352e-07 4.133 1.189 5.32 2.66 5.32Z"/>
  </defs>
</svg>