<?xml version="1.0" encoding="utf-8"?>
<svg width="76" height="90" viewBox="0 0 59.51144790649414 66.81298065185547" version="1.1" xmlns="http://www.w3.org/2000/svg" xmlns:bx="https://boxy-svg.com">
  <title>Untitled (Canvas)</title>
  <desc>Created using Figma</desc>
  <g id="Canvas" transform="matrix(0.657895, 0, 0, 0.722222, 170.672012, 162.373413)" bx:origin="0.5 0.385">
    <rect x="-246" y="-222" width="76" height="90" fill="rgba(229, 229, 229, 0)"/>
    <g id="report">
      <g id="Group">
        <g id="Vector">
          <path id="" d="M2.66 5.321L28.348 5.321C28.309 5.02 28.256 4.722 28.256 4.41L28.256-0.00000268555 2.66-0.00000268555C1.189-0.00000268555 6.10352e-7 1.189 6.10352e-7 2.66 6.10352e-7 4.133 1.189 5.321 2.66 5.321Z" transform="matrix(1, 0, 0, 1, -234.26499938964844, -160.00900268554688)" fill="rgb(254, 253, 253)"/>
        </g>
        <g id="Vector">
          <path id="" d="M9.15527e-8 8.117L9.15527e-8 28.762 11.887 28.762 11.887 3.05176e-7C8.375 0.774 5.439 5.147 0.328999 7.958 0.213999 8.022 0.112 8.059 9.15527e-8 8.117Z" transform="matrix(1, 0, 0, 1, -199.77099609375, -199.32000732421875)" fill="rgb(254, 253, 253)"/>
        </g>
        <g id="Vector">
          <path id="" d="M0.00000125122-7.62939e-8L0.00000125122 28.486 11.888 28.486 11.888 8.648C8.667 7.946 6.555 3.76 0.826001 0.417999 0.557001 0.261999 0.280001 0.123 0.00000125122-7.62939e-8Z" transform="matrix(1, 0, 0, 1, -215.78700256347656, -199.0449981689453)" fill="rgb(254, 253, 253)"/>
        </g>
        <g id="Vector">
          <path id="" d="M-4.57764e-8 29.232L11.888 29.232 11.888-3.66211e-7C7.674 0.108 3.137 2.385-4.57764e-8 4.331L-4.57764e-8 29.232Z" transform="matrix(1, 0, 0, 1, -231.802001953125, -199.79100036621094)" fill="rgb(254, 253, 253)"/>
        </g>
        <g id="Vector">
          <path id="" d="M2.961 9.88C4.591 9.88 5.918 8.553 5.918 6.922 5.918 6.802 5.897 6.687 5.882 6.57L13.099 4.062C13.538 5.147 14.599 5.916 15.839 5.916 17.022 5.916 18.037 5.213 18.51 4.207L28.528 10.074C28.455 10.333 28.401 10.601 28.401 10.885 28.401 12.515 29.726 13.841 31.358 13.841 32.819 13.841 34.028 12.774 34.266 11.379L45.464 4.871C46.008 5.505 46.805 5.916 47.702 5.916 49.335 5.916 50.662 4.589 50.662 2.958 50.662 1.326 49.335 1.52588e-7 47.702 1.52588e-7 46.071 1.52588e-7 44.744 1.326 44.744 2.958 44.744 3.105 44.767 3.247 44.787 3.389L34.031 9.639C33.56 8.63 32.543 7.925 31.357 7.925 30.595 7.925 29.908 8.222 29.384 8.695L18.744 2.465C18.507 1.069 17.298 0.000999603 15.837 0.000999603 14.397 0.000999603 13.197 1.035 12.936 2.4L5.247 5.071C4.704 4.402 3.886 3.965 2.959 3.965 1.326 3.965-1.98364e-7 5.291-1.98364e-7 6.922 -1.98364e-7 8.553 1.328 9.88 2.961 9.88ZM47.704 1.624C48.442 1.624 49.04 2.223 49.04 2.959 49.04 3.695 48.442 4.293 47.704 4.293 46.97 4.293 46.371 3.695 46.371 2.959 46.371 2.223 46.969 1.624 47.704 1.624ZM31.359 9.55C32.095 9.55 32.694 10.148 32.694 10.886 32.694 11.62 32.095 12.219 31.359 12.219 30.622 12.219 30.025 11.62 30.025 10.886 30.025 10.147 30.621 9.55 31.359 9.55ZM15.839 1.624C16.575 1.624 17.172 2.223 17.172 2.959 17.172 3.695 16.574 4.293 15.839 4.293 15.102 4.293 14.504 3.695 14.504 2.959 14.504 2.223 15.102 1.624 15.839 1.624ZM2.961 5.588C3.697 5.588 4.294 6.186 4.294 6.922 4.294 7.658 3.696 8.257 2.961 8.257 2.224 8.257 1.625 7.658 1.625 6.922 1.625 6.186 2.224 5.588 2.961 5.588Z" transform="matrix(1, 0, 0, 1, -234.26699829101562, -207.03500366210938)" fill="rgb(254, 253, 253)"/>
        </g>
        <g id="Vector">
          <path id="" d="M69.167 0L5.321 0C2.385 0-3.05176e-8 2.382-3.05176e-8 5.321L-3.05176e-8 84.68C-3.05176e-8 87.619 2.385 90 5.321 90L53.206 90 74.486 68.717 74.486 5.321C74.486 2.382 72.109 0 69.167 0ZM53.206 82.477L53.206 68.717 66.964 68.717 53.206 82.477ZM69.167 63.397L53.206 63.397C50.265 63.397 47.887 65.781 47.887 68.716L47.887 84.68 5.321 84.68 5.321 5.321 69.167 5.321 69.167 63.397 69.167 63.397Z" transform="matrix(1, 0, 0, 1, -245.2429962158203, -222)" fill="rgb(254, 253, 253)"/>
        </g>
        <g id="Vector">
          <path id="" d="M2.66 5.32L28.348 5.32C28.309 5.017 28.256 4.72 28.256 4.408L28.256 0.0000022583 2.66 0.0000022583C1.189 0.0000022583 6.10352e-7 1.188 6.10352e-7 2.658 6.10352e-7 4.133 1.189 5.32 2.66 5.32Z" transform="matrix(1, 0, 0, 1, -234.26499938964844, -150.26800537109375)" fill="rgb(254, 253, 253)"/>
        </g>
      </g>
    </g>
  </g>
  <defs>
    <path id="path0_fill" d="M2.66 5.321L28.348 5.321C28.309 5.02 28.256 4.722 28.256 4.41L28.256-0.00000268555 2.66-0.00000268555C1.189-0.00000268555 6.10352e-7 1.189 6.10352e-7 2.66 6.10352e-7 4.133 1.189 5.321 2.66 5.321Z"/>
    <path id="path1_fill" d="M9.15527e-8 8.117L9.15527e-8 28.762 11.887 28.762 11.887 3.05176e-7C8.375 0.774 5.439 5.147 0.328999 7.958 0.213999 8.022 0.112 8.059 9.15527e-8 8.117Z"/>
    <path id="path2_fill" d="M0.00000125122-7.62939e-8L0.00000125122 28.486 11.888 28.486 11.888 8.648C8.667 7.946 6.555 3.76 0.826001 0.417999 0.557001 0.261999 0.280001 0.123 0.00000125122-7.62939e-8Z"/>
    <path id="path3_fill" d="M-4.57764e-8 29.232L11.888 29.232 11.888-3.66211e-7C7.674 0.108 3.137 2.385-4.57764e-8 4.331L-4.57764e-8 29.232Z"/>
    <path id="path4_fill" d="M2.961 9.88C4.591 9.88 5.918 8.553 5.918 6.922 5.918 6.802 5.897 6.687 5.882 6.57L13.099 4.062C13.538 5.147 14.599 5.916 15.839 5.916 17.022 5.916 18.037 5.213 18.51 4.207L28.528 10.074C28.455 10.333 28.401 10.601 28.401 10.885 28.401 12.515 29.726 13.841 31.358 13.841 32.819 13.841 34.028 12.774 34.266 11.379L45.464 4.871C46.008 5.505 46.805 5.916 47.702 5.916 49.335 5.916 50.662 4.589 50.662 2.958 50.662 1.326 49.335 1.52588e-7 47.702 1.52588e-7 46.071 1.52588e-7 44.744 1.326 44.744 2.958 44.744 3.105 44.767 3.247 44.787 3.389L34.031 9.639C33.56 8.63 32.543 7.925 31.357 7.925 30.595 7.925 29.908 8.222 29.384 8.695L18.744 2.465C18.507 1.069 17.298 0.000999603 15.837 0.000999603 14.397 0.000999603 13.197 1.035 12.936 2.4L5.247 5.071C4.704 4.402 3.886 3.965 2.959 3.965 1.326 3.965-1.98364e-7 5.291-1.98364e-7 6.922 -1.98364e-7 8.553 1.328 9.88 2.961 9.88ZM47.704 1.624C48.442 1.624 49.04 2.223 49.04 2.959 49.04 3.695 48.442 4.293 47.704 4.293 46.97 4.293 46.371 3.695 46.371 2.959 46.371 2.223 46.969 1.624 47.704 1.624ZM31.359 9.55C32.095 9.55 32.694 10.148 32.694 10.886 32.694 11.62 32.095 12.219 31.359 12.219 30.622 12.219 30.025 11.62 30.025 10.886 30.025 10.147 30.621 9.55 31.359 9.55ZM15.839 1.624C16.575 1.624 17.172 2.223 17.172 2.959 17.172 3.695 16.574 4.293 15.839 4.293 15.102 4.293 14.504 3.695 14.504 2.959 14.504 2.223 15.102 1.624 15.839 1.624ZM2.961 5.588C3.697 5.588 4.294 6.186 4.294 6.922 4.294 7.658 3.696 8.257 2.961 8.257 2.224 8.257 1.625 7.658 1.625 6.922 1.625 6.186 2.224 5.588 2.961 5.588Z"/>
    <path id="path5_fill" d="M69.167 0L5.321 0C2.385 0-3.05176e-8 2.382-3.05176e-8 5.321L-3.05176e-8 84.68C-3.05176e-8 87.619 2.385 90 5.321 90L53.206 90 74.486 68.717 74.486 5.321C74.486 2.382 72.109 0 69.167 0ZM53.206 82.477L53.206 68.717 66.964 68.717 53.206 82.477ZM69.167 63.397L53.206 63.397C50.265 63.397 47.887 65.781 47.887 68.716L47.887 84.68 5.321 84.68 5.321 5.321 69.167 5.321 69.167 63.397 69.167 63.397Z"/>
    <path id="path6_fill" d="M2.66 5.32L28.348 5.32C28.309 5.017 28.256 4.72 28.256 4.408L28.256 0.0000022583 2.66 0.0000022583C1.189 0.0000022583 6.10352e-7 1.188 6.10352e-7 2.658 6.10352e-7 4.133 1.189 5.32 2.66 5.32Z"/>
  </defs>
</svg>