<?xml version="1.0" encoding="utf-8"?>
<svg version="1.1" x="0px" y="0px" viewBox="0 0 110.43444061279297 141.88624572753906" enable-background="new 0 0 97.708 113.509" xmlns="http://www.w3.org/2000/svg">
  <g>
    <path d="M 80.781 113.964 L 80.781 84.613 L 46.654 50.206 L 12.527 84.613 L 12.527 113.964 L 39.254 113.964 L 39.254 89.595 C 39.254 85.674 42.468 82.495 46.434 82.495 C 50.4 82.495 53.614 85.674 53.614 89.595 L 53.614 113.965 L 80.781 113.965 Z M 30.827 103.614 L 21.149 103.614 L 21.149 100.169 L 30.827 100.169 L 30.827 103.614 Z M 30.827 98.23 L 21.149 98.23 L 21.149 88.05 L 30.827 88.05 L 30.827 98.23 Z M 46.434 72.009 C 44.192 72.009 42.375 70.21 42.375 67.994 C 42.375 65.778 44.192 63.984 46.434 63.984 C 48.676 63.984 50.493 65.778 50.493 67.994 C 50.493 70.21 48.676 72.009 46.434 72.009 Z M 62.041 88.05 L 71.719 88.05 L 71.719 98.23 L 62.041 98.23 L 62.041 88.05 Z M 62.041 100.168 L 71.719 100.168 L 71.719 103.613 L 62.041 103.613 L 62.041 100.168 Z" style="fill: rgb(255, 251, 251);"/>
    <path d="M 46.654 47.972 L 85.123 86.852 L 87.494 84.563 L 58.847 55.607 L 58.847 29.754 L 46.654 17.4 L 34.461 29.754 L 34.461 55.607 L 5.815 84.563 L 8.186 86.852 L 46.654 47.972 Z M 37.12 31.361 L 46.034 31.361 L 46.034 34.718 C 45.252 34.909 44.01 35.614 44.01 38.227 C 44.01 40.873 42.14 41.465 42.14 41.465 L 46.654 41.465 L 51.168 41.465 C 51.168 41.465 49.298 40.873 49.298 38.227 C 49.298 35.614 48.056 34.909 47.274 34.718 L 47.274 31.361 L 56.187 31.361 L 56.187 43.242 L 37.12 43.242 L 37.12 31.361 Z" style="fill: rgb(255, 251, 251);"/>
    <rect x="7" y="115.658" width="79.308" height="3.327" style="fill: rgb(255, 251, 251);"/>
    <path d="M 100.653 42.117 L 100.653 42.117 C 98.625 40.065 95.337 40.065 93.308 42.117 L 93.308 40.073 L 91.882 40.073 L 91.882 120.673 L 0 120.673 L 0 124 L 93.308 124 L 93.308 120.673 L 93.308 51.552 C 95.337 49.5 98.625 49.5 100.654 51.552 L 100.653 51.552 C 102.684 53.597 105.972 53.597 108 51.552 L 108 42.116 C 105.971 44.164 102.683 44.164 100.653 42.117 Z" style="fill: rgb(255, 251, 251);"/>
    <polygon points="46.654 15.177 64.674 33.39 67.044 31.101 47.368 11.21 47.368 0 45.941 0 45.941 11.209 26.264 31.101 28.634 33.39" style="fill: rgb(255, 251, 251);"/>
  </g>
</svg>