<svg xmlns="http://www.w3.org/2000/svg" version="1.1" x="0px" y="0px" viewBox="0 0 110.43444061279297 141.88624572753906" enable-background="new 0 0 97.708 113.509"><g><path d="M80.781 113.964L80.781 84.613 46.654 50.206 12.527 84.613 12.527 113.964 39.254 113.964 39.254 89.595C39.254 85.674 42.468 82.495 46.434 82.495 50.4 82.495 53.614 85.674 53.614 89.595L53.614 113.965 80.781 113.965ZM30.827 103.614L21.149 103.614 21.149 100.169 30.827 100.169 30.827 103.614ZM30.827 98.23L21.149 98.23 21.149 88.05 30.827 88.05 30.827 98.23ZM46.434 72.009C44.192 72.009 42.375 70.21 42.375 67.994 42.375 65.778 44.192 63.984 46.434 63.984 48.676 63.984 50.493 65.778 50.493 67.994 50.493 70.21 48.676 72.009 46.434 72.009ZM62.041 88.05L71.719 88.05 71.719 98.23 62.041 98.23 62.041 88.05ZM62.041 100.168L71.719 100.168 71.719 103.613 62.041 103.613 62.041 100.168Z" fill="rgb(255, 251, 251)"/><path d="M46.654 47.972L85.123 86.852 87.494 84.563 58.847 55.607 58.847 29.754 46.654 17.4 34.461 29.754 34.461 55.607 5.815 84.563 8.186 86.852 46.654 47.972ZM37.12 31.361L46.034 31.361 46.034 34.718C45.252 34.909 44.01 35.614 44.01 38.227 44.01 40.873 42.14 41.465 42.14 41.465L46.654 41.465 51.168 41.465C51.168 41.465 49.298 40.873 49.298 38.227 49.298 35.614 48.056 34.909 47.274 34.718L47.274 31.361 56.187 31.361 56.187 43.242 37.12 43.242 37.12 31.361Z" fill="rgb(255, 251, 251)"/><rect x="7" y="115.658" width="79.308" height="3.327" fill="rgb(255, 251, 251)"/><path d="M100.653 42.117L100.653 42.117C98.625 40.065 95.337 40.065 93.308 42.117L93.308 40.073 91.882 40.073 91.882 120.673 0 120.673 0 124 93.308 124 93.308 120.673 93.308 51.552C95.337 49.5 98.625 49.5 100.654 51.552L100.653 51.552C102.684 53.597 105.972 53.597 108 51.552L108 42.116C105.971 44.164 102.683 44.164 100.653 42.117Z" fill="rgb(255, 251, 251)"/><polygon points="46.654 15.177 64.674 33.39 67.044 31.101 47.368 11.21 47.368 0 45.941 0 45.941 11.209 26.264 31.101 28.634 33.39" fill="rgb(255, 251, 251)"/></g></svg>